
<svg width="11" height="19" viewBox="0 0 11 19" fill="none" xmlns="http://www.w3.org/2000/svg">
<path d="M5.02544 13C4.62544 13 4.2881 12.8583 4.01344 12.575C3.7381 12.2917 3.6171 11.9583 3.65044 11.575C3.70044 10.875 3.8671 10.2667 4.15044 9.75C4.43377 9.23333 4.88377 8.7 5.50044 8.15C6.18377 7.55 6.70444 7.029 7.06244 6.587C7.42111 6.14567 7.60044 5.64167 7.60044 5.075C7.60044 4.39167 7.37144 3.825 6.91344 3.375C6.45477 2.925 5.81711 2.7 5.00044 2.7C4.46711 2.7 4.0131 2.81233 3.63844 3.037C3.2631 3.26233 2.95877 3.54167 2.72544 3.875C2.49211 4.20833 2.20477 4.43333 1.86344 4.55C1.52144 4.66667 1.19211 4.65833 0.875439 4.525C0.492105 4.35833 0.229772 4.08333 0.0884385 3.7C-0.0535615 3.31667 -0.0245612 2.95833 0.175439 2.625C0.658772 1.875 1.30877 1.25 2.12544 0.75C2.94211 0.25 3.90044 0 5.00044 0C6.75044 0 8.09644 0.487666 9.03844 1.463C9.97977 2.43767 10.4504 3.60833 10.4504 4.975C10.4504 5.80833 10.2714 6.521 9.91344 7.113C9.55477 7.70433 8.99211 8.375 8.22544 9.125C7.65877 9.65833 7.25877 10.0917 7.02544 10.425C6.7921 10.7583 6.63377 11.1417 6.55044 11.575C6.48377 11.9917 6.30877 12.3333 6.02544 12.6C5.7421 12.8667 5.40877 13 5.02544 13ZM5.00044 19C4.45044 19 3.97977 18.8043 3.58844 18.413C3.19644 18.021 3.00044 17.55 3.00044 17C3.00044 16.45 3.19644 15.979 3.58844 15.587C3.97977 15.1957 4.45044 15 5.00044 15C5.55044 15 6.02144 15.1957 6.41344 15.587C6.80477 15.979 7.00044 16.45 7.00044 17C7.00044 17.55 6.80477 18.021 6.41344 18.413C6.02144 18.8043 5.55044 19 5.00044 19Z" fill="white"/>
</svg>
